<svg width="24px" height="24px" viewBox="0 0 24 24" fill="none" xmlns="http://www.w3.org/2000/svg">
<path d="M12 7L12.5303 6.46967C12.3158 6.25517 11.9932 6.191 11.713 6.30709C11.4327 6.42318 11.25 6.69665 11.25 7H12ZM11.25 17C11.25 17.4142 11.5858 17.75 12 17.75C12.4142 17.75 12.75 17.4142 12.75 17H11.25ZM15.4697 11.5303C15.7626 11.8232 16.2374 11.8232 16.5303 11.5303C16.8232 11.2374 16.8232 10.7626 16.5303 10.4697L15.4697 11.5303ZM7.46967 10.4697C7.17678 10.7626 7.17678 11.2374 7.46967 11.5303C7.76256 11.8232 8.23744 11.8232 8.53033 11.5303L7.46967 10.4697ZM17.1856 5.58303C17.5075 5.84359 17.9798 5.79378 18.2404 5.47178C18.5009 5.14979 18.4511 4.67753 18.1291 4.41697L17.1856 5.58303ZM21.195 8.75007C21.057 8.35953 20.6285 8.15484 20.2379 8.29287C19.8474 8.43091 19.6427 8.8594 19.7808 9.24993L21.195 8.75007ZM10.5303 9.53033C10.8232 9.23744 10.8232 8.76256 10.5303 8.46967C10.2374 8.17678 9.76256 8.17678 9.46967 8.46967L10.5303 9.53033ZM11.25 7V17H12.75V7H11.25ZM16.5303 10.4697L12.5303 6.46967L11.4697 7.53033L15.4697 11.5303L16.5303 10.4697ZM20.25 12C20.25 16.5563 16.5563 20.25 12 20.25V21.75C17.3848 21.75 21.75 17.3848 21.75 12H20.25ZM12 20.25C7.44365 20.25 3.75 16.5563 3.75 12H2.25C2.25 17.3848 6.61522 21.75 12 21.75V20.25ZM3.75 12C3.75 7.44365 7.44365 3.75 12 3.75V2.25C6.61522 2.25 2.25 6.61522 2.25 12H3.75ZM12 3.75C13.9654 3.75 15.7685 4.43632 17.1856 5.58303L18.1291 4.41697C16.4548 3.06208 14.3212 2.25 12 2.25V3.75ZM19.7808 9.24993C20.0844 10.1091 20.25 11.0344 20.25 12H21.75C21.75 10.8618 21.5546 9.76756 21.195 8.75007L19.7808 9.24993ZM9.46967 8.46967L7.46967 10.4697L8.53033 11.5303L10.5303 9.53033L9.46967 8.46967Z" fill="#001A72"/>
</svg>
