<?xml version="1.0" encoding="iso-8859-1"?>
<!-- Generator: Adobe Illustrator 18.0.0, SVG Export Plug-In . SVG Version: 6.00 Build 0)  -->
<!DOCTYPE svg PUBLIC "-//W3C//DTD SVG 1.1//EN" "http://www.w3.org/Graphics/SVG/1.1/DTD/svg11.dtd">
<svg version="1.1" id="Capa_1" xmlns="http://www.w3.org/2000/svg" xmlns:xlink="http://www.w3.org/1999/xlink" x="0px" y="0px"
	 viewBox="0 0 487.028 487.028" style="enable-background:new 0 0 487.028 487.028;" xml:space="preserve">
<g>
	<path d="M151.503,96.82c23.374,0,42.321-21.676,42.321-48.406C193.824,21.676,174.878,0,151.503,0
		c-23.365,0-42.312,21.676-42.312,48.414C109.191,75.144,128.138,96.82,151.503,96.82z"/>
	<path d="M277.887,262.524c4.482,0,8.997-1.477,12.757-4.516c8.719-7.054,10.076-19.843,3.024-28.571l-87.355-108.03
		c-4.181-5.157-10.362-7.395-16.527-7.18c-0.119-0.016-3.245-0.024-8.069-0.032v115.322h23.834l0.08-44.335l56.442,69.804
		C266.088,259.946,271.959,262.524,277.887,262.524z"/>
	<path d="M135.001,114.188v34.998c0,3.705,2.999,6.705,6.704,6.705h19.598c3.705,0,6.705-3,6.705-6.705v-34.998
		C157.629,114.18,145.363,114.18,135.001,114.188z"/>
	<path d="M121.291,114.211c-4.737,0.008-7.791,0.016-7.918,0.032c-6.22-0.262-12.456,1.959-16.67,7.165L9.348,229.438
		c-7.053,8.727-5.697,21.517,3.023,28.571c3.761,3.039,8.275,4.516,12.758,4.516c5.927,0,11.798-2.579,15.813-7.538l56.649-70.058
		l0.048,44.589h23.651V114.211z"/>
	<path d="M189.071,276.512c0,5.848-4.737,10.585-10.583,10.585h-53.96c-5.848,0-10.584-4.736-10.584-10.585v-32.776H97.655
		l0.23,218.005c0,13.464,10.91,24.373,24.374,24.373c13.464,0,24.373-10.91,24.373-24.373V325.068h9.751v137.586
		c0,13.464,10.909,24.374,24.374,24.374c13.464,0,24.374-10.91,24.374-24.374l0.396-218.919h-16.456V276.512z"/>
	<path d="M479.049,286.073c-2.873-3.737-7.315-5.928-12.029-5.928l-224.385-0.492c-8.337,0-15.099,6.761-15.099,15.098
		c0,8.339,6.761,15.099,15.099,15.099h29.388l38.274,112.816c2.983,9.085,10.188,15.789,18.994,18.456
		c-2.951,3.204-4.847,7.401-4.847,12.099c0,9.941,8.053,18.002,18.002,18.002c9.941,0,18.002-8.061,18.002-18.002
		c0-4.126-1.626-7.745-3.95-10.775h32.292c-2.325,3.03-3.952,6.649-3.952,10.775c0,9.941,8.053,18.002,18.002,18.002
		c9.941,0,18.002-8.061,18.002-18.002c0-4.126-1.626-7.745-3.95-10.775h6.625c7.505,0,13.591-6.085,13.591-13.591
		c0-7.505-6.085-13.59-13.591-13.59h-85.902c-0.682,0-1.287-0.438-1.5-1.087l-6.681-20.328h115.449
		c6.88,0,12.902-4.626,14.67-11.283l22.138-83.354C482.896,294.657,481.92,289.802,479.049,286.073z"/>
</g>
<g>
</g>
<g>
</g>
<g>
</g>
<g>
</g>
<g>
</g>
<g>
</g>
<g>
</g>
<g>
</g>
<g>
</g>
<g>
</g>
<g>
</g>
<g>
</g>
<g>
</g>
<g>
</g>
<g>
</g>
</svg>
