<?xml version="1.0" encoding="iso-8859-1"?>
<!-- Generator: Adobe Illustrator 19.0.0, SVG Export Plug-In . SVG Version: 6.00 Build 0)  -->
<svg version="1.1" id="Layer_1" xmlns="http://www.w3.org/2000/svg" xmlns:xlink="http://www.w3.org/1999/xlink" x="0px" y="0px"
	 viewBox="0 0 488 488" style="enable-background:new 0 0 488 488;" xml:space="preserve">
<g transform="translate(0 -540.36)">
	<g>
		<g>
			<path d="M366.5,638.36c5.5,0,10-4.5,10-10s-4.5-10-10-10h-51.3c-4.7,0-8.8,3.2-9.8,7.8l-7.4,33.8H10c-5.5,0-10,4.5-10,10v187.2
				c0,5.5,4.5,10,10,10h51.3c3.4,0,6.6-1.7,8.4-4.6l17.4-27h86.3v21.6c0,5.5,4.5,10,10,10h81.4c4.6,0,8.7-3.3,9.8-7.8l48.7-221
				H366.5z M256.8,847.16h-63.4h-0.1v-21.6c0-5.5-4.5-10-10-10H81.6c-3.4,0-6.6,1.7-8.4,4.6l-17.4,27H20v-167.2h273.7L256.8,847.16z
				"/>
			<path d="M478,659.96H346.2c-4.7,0-8.8,3.3-9.8,7.9l-40.7,186.4c-0.6,3,0.1,6,2,8.4c1.9,2.3,4.8,3.7,7.8,3.7h30.1
				c3.3,0,6.4-1.7,8.3-4.5l17.4-26.3h76.6v20.8c0,5.5,4.5,10,10,10H478c5.5,0,10-4.5,10-10v-186.4
				C488,664.46,483.5,659.96,478,659.96z M468,846.36h-10.1v-20.8c0-5.5-4.5-10-10-10h-92c-3.3,0-6.4,1.7-8.3,4.5l-17.4,26.3h-12.3
				l36.3-166.4H468V846.36z"/>
			<path d="M122.3,847.16c-28.4,0-50.7,22.7-50.7,51.6c0,28.5,22.7,51.6,50.7,51.6s50.7-23.1,50.7-51.6
				C173,869.86,150.7,847.16,122.3,847.16z M122.3,930.36c-16.9,0-30.7-14.2-30.7-31.6c0-17.7,13.5-31.6,30.7-31.6
				c17.2,0,30.7,13.9,30.7,31.6C153,916.16,139.2,930.36,122.3,930.36z"/>
			<path d="M396.6,847.16c-28,0-50.7,23.1-50.7,51.6c0,28,23.2,51.6,50.7,51.6c28,0,50.7-23.1,50.7-51.6
				C447.3,869.86,425,847.16,396.6,847.16z M396.6,930.36c-16.4,0-30.7-14.8-30.7-31.6c0-17.4,13.8-31.6,30.7-31.6
				c17.2,0,30.7,13.9,30.7,31.6C427.3,916.16,413.5,930.36,396.6,930.36z"/>
			<path d="M366.5,773.16h81.4c5.5,0,10-4.5,10-10v-62.4c0-5.5-4.5-10-10-10h-71.6c-4.9,0-9.1,3.6-9.9,8.5l-9.8,62.4
				c-0.4,2.8,0.4,5.8,2.3,8C360.8,771.86,363.6,773.16,366.5,773.16z M384.8,710.76h53.1v42.4h-59.7L384.8,710.76z"/>
		</g>
	</g>
</g>
<g>
</g>
<g>
</g>
<g>
</g>
<g>
</g>
<g>
</g>
<g>
</g>
<g>
</g>
<g>
</g>
<g>
</g>
<g>
</g>
<g>
</g>
<g>
</g>
<g>
</g>
<g>
</g>
<g>
</g>
</svg>
