<?xml version="1.0" encoding="iso-8859-1"?>
<!-- Generator: Adobe Illustrator 19.0.0, SVG Export Plug-In . SVG Version: 6.00 Build 0)  -->
<svg version="1.1" id="Layer_1" xmlns="http://www.w3.org/2000/svg" xmlns:xlink="http://www.w3.org/1999/xlink" x="0px" y="0px"
	 viewBox="0 0 496 496" style="enable-background:new 0 0 496 496;" xml:space="preserve">
<path style="fill:#515150;" d="M292,334.8c0,4-3.2,8-8,8H44c-4,0-8-3.2-8-8v-20c0-4,3.2-8,8-8h240c4,0,8,3.2,8,8V334.8z"/>
<path style="fill:#B1B2B1;" d="M366.4,318.8c0,4-3.2,7.2-7.2,7.2h-344c-4,0-7.2-3.2-7.2-7.2v-180c0-4,3.2-7.2,7.2-7.2h344
	c4,0,7.2,3.2,7.2,7.2V318.8z"/>
<path style="fill:#A5A5A5;" d="M358.4,152.4h-344c-4,0-7.2,3.2-7.2,7.2v159.2c0,4,3.2,7.2,7.2,7.2h344c4,0,7.2-3.2,7.2-7.2V159.6
	C366.4,155.6,363.2,152.4,358.4,152.4z"/>
<path style="fill:#8E8E8E;" d="M7.2,254.8v64c0,4,3.2,7.2,7.2,7.2h344c4,0,7.2-3.2,7.2-7.2v-64H7.2z"/>
<path style="fill:#66DD19;" d="M488,313.2c0,4-3.2,7.2-7.2,7.2H379.2c-4,0-7.2-3.2-7.2-7.2V152.4c0-4,0.8-12,4-12l98.4,4.8
	c4,0,12.8,32,12.8,36v132H488z"/>
<path style="fill:#59CE0D;" d="M488,313.2c0,4-3.2,7.2-7.2,7.2H379.2c-4,0-7.2-3.2-7.2-7.2L400,162c0-4,0.8-12,4-12l70.4-4.8
	c4,0,12.8,32,12.8,36v132H488z"/>
<path style="fill:#4DB708;" d="M372,254.8v57.6c0,4,3.2,7.2,7.2,7.2h101.6c4,0,7.2-3.2,7.2-7.2v-57.6H372z"/>
<path style="fill:#8E8E8E;" d="M496,322c0,4-3.2,7.2-7.2,7.2H7.2c-4,0-7.2-3.2-7.2-7.2l0,0c0-4,3.2-7.2,7.2-7.2h482.4
	C492.8,315.6,496,318.8,496,322L496,322z"/>
<path d="M24.8,330c0-20,16-36,36-36s36,16,36,36"/>
<path style="fill:#8E8E8E;" d="M98.4,330h-3.2c0-19.2-15.2-34.4-34.4-34.4S26.4,310.8,26.4,330h-3.2c0-20.8,16.8-37.6,37.6-37.6
	S98.4,309.2,98.4,330z"/>
<circle style="fill:#203547;" cx="60.8" cy="331.6" r="32.8"/>
<path style="fill:#122130;" d="M84,308.4c12.8,12.8,12.8,33.6,0,46.4s-33.6,12.8-46.4,0"/>
<circle style="fill:#FFA300;" cx="60.8" cy="331.6" r="20.8"/>
<path style="fill:#FF8500;" d="M75.2,317.2c8,8,8,20.8,0,28.8s-20.8,8-28.8,0"/>
<circle style="fill:#CED8DD;" cx="60.8" cy="331.6" r="17.6"/>
<path style="fill:#B2BBC1;" d="M73.6,318.8c7.2,7.2,7.2,18.4,0,25.6c-7.2,7.2-18.4,7.2-25.6,0"/>
<path style="opacity:0.2;fill:#888F91;enable-background:new    ;" d="M68.8,331.6c0,4.8-4,9.6-8,9.6c-4.8,0-8-4.8-8-9.6
	c0-4.8,4-8,8-8C65.6,323.6,68.8,326.8,68.8,331.6z"/>
<circle style="fill:#E7EFF2;" cx="60.8" cy="331.6" r="8"/>
<path style="fill:#DAE6EA;" d="M60.8,323.6c4.8,0,8,4,8,8c0,4.8-4,8-8,8"/>
<path style="fill:#666E70;" d="M60.8,314c-0.8,0-1.6,0-2.4,0c0,2.4,1.6,4.8,2.4,4.8s2.4-1.6,2.4-4.8C62.4,314,61.6,314,60.8,314z"/>
<path style="fill:#535A5B;" d="M60.8,318c0.8,0,2.4-1.6,2.4-4.8c-0.8,0-1.6,0-2.4,0"/>
<path style="fill:#666E70;" d="M58.4,349.2c1.6,0,3.2,0,4.8,0c0-2.4-1.6-4.8-2.4-4.8S58.4,346.8,58.4,349.2z"/>
<path style="fill:#535A5B;" d="M63.2,349.2c0-2.4-1.6-4.8-2.4-4.8"/>
<path style="fill:#666E70;" d="M46.4,321.2c2.4,1.6,4,2.4,4.8,1.6s0-2.4-1.6-4.8C48.8,318,47.2,319.6,46.4,321.2z"/>
<path style="fill:#535A5B;" d="M51.2,322c0.8-0.8,0-2.4-1.6-4.8"/>
<path style="fill:#666E70;" d="M75.2,342.8c-2.4-1.6-4-2.4-4.8-1.6s0,2.4,1.6,4.8c0.8-0.8,1.6-0.8,1.6-1.6
	C73.6,343.6,74.4,342.8,75.2,342.8z"/>
<path style="fill:#535A5B;" d="M73.6,344.4c0.8-0.8,0.8-1.6,1.6-1.6c-2.4-1.6-4-2.4-4.8-1.6"/>
<path style="fill:#666E70;" d="M43.2,334c2.4,0,4.8-1.6,4.8-2.4s-1.6-2.4-4.8-2.4c0,0.8,0,1.6,0,2.4S42.4,333.2,43.2,334z"/>
<path style="fill:#535A5B;" d="M47.2,331.6c0-0.8-1.6-2.4-4.8-2.4c0,0.8,0,1.6,0,2.4"/>
<path style="fill:#666E70;" d="M73.6,331.6c0,0.8,1.6,2.4,4.8,2.4c0-1.6,0-3.2,0-4.8C76,330,73.6,330.8,73.6,331.6z"/>
<path style="fill:#535A5B;" d="M78.4,329.2c-2.4,0-4.8,1.6-4.8,2.4"/>
<path style="fill:#666E70;" d="M46.4,342.8c0.8,1.6,2.4,2.4,3.2,3.2c1.6-2.4,2.4-4,1.6-4.8C50.4,340.4,48.8,341.2,46.4,342.8z"/>
<path style="fill:#535A5B;" d="M49.6,346c1.6-2.4,2.4-4,1.6-4.8"/>
<path style="fill:#666E70;" d="M71.2,317.2c-1.6,2.4-2.4,4-1.6,4.8s3.2,0,4.8-1.6C73.6,319.6,72.8,318,71.2,317.2z"/>
<path style="fill:#535A5B;" d="M71.2,317.2c-1.6,2.4-2.4,4-1.6,4.8"/>
<path d="M108.8,330c0-20,16-36,36-36s36,16,36,36"/>
<path style="fill:#8E8E8E;" d="M183.2,330H180c0-19.2-15.2-34.4-34.4-34.4s-34.4,15.2-34.4,34.4H108c0-20.8,16.8-37.6,37.6-37.6
	S183.2,309.2,183.2,330z"/>
<circle style="fill:#203547;" cx="145.6" cy="331.6" r="32.8"/>
<path style="fill:#122130;" d="M168,308.4c12.8,12.8,12.8,33.6,0,46.4s-33.6,12.8-46.4,0"/>
<circle style="fill:#FFA300;" cx="145.6" cy="331.6" r="20.8"/>
<path style="fill:#FF8500;" d="M160,317.2c8,8,8,20.8,0,28.8s-20.8,8-28.8,0"/>
<circle style="fill:#CED8DD;" cx="145.6" cy="331.6" r="17.6"/>
<path style="fill:#B2BBC1;" d="M157.6,318.8c7.2,7.2,7.2,18.4,0,25.6s-18.4,7.2-25.6,0"/>
<path style="opacity:0.2;fill:#888F91;enable-background:new    ;" d="M153.6,331.6c0,4.8-4,9.6-8,9.6s-8-4.8-8-9.6c0-4.8,4-8,8-8
	S153.6,326.8,153.6,331.6z"/>
<circle style="fill:#E7EFF2;" cx="145.6" cy="331.6" r="8"/>
<path style="fill:#DAE6EA;" d="M145.6,323.6c4.8,0,8,4,8,8c0,4.8-4,8-8,8"/>
<path style="fill:#666E70;" d="M145.6,314c-0.8,0-1.6,0-2.4,0c0,2.4,1.6,4.8,2.4,4.8c0.8,0,2.4-1.6,2.4-4.8
	C147.2,314,146.4,314,145.6,314z"/>
<path style="fill:#535A5B;" d="M145.6,318c0.8,0,2.4-1.6,2.4-4.8c-0.8,0-1.6,0-2.4,0"/>
<path style="fill:#666E70;" d="M143.2,349.2c1.6,0,3.2,0,4.8,0c0-2.4-1.6-4.8-2.4-4.8C144,345.2,143.2,346.8,143.2,349.2z"/>
<path style="fill:#535A5B;" d="M148,349.2c0-2.4-1.6-4.8-2.4-4.8"/>
<path style="fill:#666E70;" d="M131.2,321.2c2.4,1.6,4,2.4,4.8,1.6s0-2.4-1.6-4.8C132.8,318,132,319.6,131.2,321.2z"/>
<path style="fill:#535A5B;" d="M136,322c0.8-0.8,0-2.4-1.6-4.8"/>
<path style="fill:#666E70;" d="M159.2,342.8c-2.4-1.6-4-2.4-4.8-1.6s0,2.4,1.6,4.8c0.8-0.8,1.6-0.8,1.6-1.6S159.2,342.8,159.2,342.8
	z"/>
<path style="fill:#535A5B;" d="M157.6,344.4c0.8-0.8,0.8-1.6,1.6-1.6c-2.4-1.6-4-2.4-4.8-1.6"/>
<path style="fill:#666E70;" d="M127.2,334c2.4,0,4.8-1.6,4.8-2.4s-1.6-2.4-4.8-2.4c0,0.8,0,1.6,0,2.4S127.2,333.2,127.2,334z"/>
<path style="fill:#535A5B;" d="M132,331.6c0-0.8-1.6-2.4-4.8-2.4c0,0.8,0,1.6,0,2.4"/>
<path style="fill:#666E70;" d="M158.4,331.6c0,0.8,1.6,2.4,4,2.4c0-1.6,0-3.2,0-4.8C160.8,330,158.4,330.8,158.4,331.6z"/>
<path style="fill:#535A5B;" d="M163.2,329.2c-2.4,0-4,1.6-4,2.4"/>
<path style="fill:#666E70;" d="M131.2,342.8c0.8,1.6,2.4,2.4,3.2,3.2c1.6-2.4,2.4-4,1.6-4.8C135.2,340.4,132.8,341.2,131.2,342.8z"
	/>
<path style="fill:#535A5B;" d="M134.4,346c1.6-2.4,2.4-4,1.6-4.8"/>
<path style="fill:#666E70;" d="M156,317.2c-1.6,2.4-2.4,4-1.6,4.8c0.8,0.8,2.4,0,4.8-1.6C158.4,319.6,157.6,318,156,317.2z"/>
<path style="fill:#535A5B;" d="M156,317.2c-1.6,2.4-2.4,4-1.6,4.8"/>
<path d="M193.6,330c0-20,16-36,36-36s36,16,36,36"/>
<path style="fill:#8E8E8E;" d="M267.2,330H264c0-19.2-15.2-34.4-34.4-34.4s-34.4,15.2-34.4,34.4H192c0-20.8,16.8-37.6,37.6-37.6
	S267.2,309.2,267.2,330z"/>
<circle style="fill:#203547;" cx="229.6" cy="331.6" r="32.8"/>
<path style="fill:#122130;" d="M252.8,308.4c12.8,12.8,12.8,33.6,0,46.4c-12.8,12.8-33.6,12.8-46.4,0"/>
<circle style="fill:#FFA300;" cx="229.6" cy="331.6" r="20.8"/>
<path style="fill:#FF8500;" d="M244.8,317.2c8,8,8,20.8,0,28.8c-8,8-20.8,8-28.8,0"/>
<circle style="fill:#CED8DD;" cx="229.6" cy="331.6" r="17.6"/>
<path style="fill:#B2BBC1;" d="M242.4,318.8c7.2,7.2,7.2,18.4,0,25.6c-7.2,7.2-18.4,7.2-25.6,0"/>
<path style="opacity:0.2;fill:#888F91;enable-background:new    ;" d="M238.4,331.6c0,4.8-4,9.6-8,9.6c-4.8,0-8-4.8-8-9.6
	c0-4.8,4-8,8-8S238.4,326.8,238.4,331.6z"/>
<circle style="fill:#E7EFF2;" cx="229.6" cy="331.6" r="8"/>
<path style="fill:#DAE6EA;" d="M229.6,323.6c4.8,0,8,4,8,8c0,4.8-4,8-8,8"/>
<path style="fill:#666E70;" d="M229.6,314c-0.8,0-1.6,0-2.4,0c0,2.4,1.6,4.8,2.4,4.8c0.8,0,2.4-1.6,2.4-4.8
	C231.2,314,230.4,314,229.6,314z"/>
<path style="fill:#535A5B;" d="M229.6,318c0.8,0,2.4-1.6,2.4-4.8c-0.8,0-1.6,0-2.4,0"/>
<path style="fill:#666E70;" d="M227.2,349.2c1.6,0,3.2,0,4.8,0c0-2.4-1.6-4.8-2.4-4.8C228.8,345.2,228,346.8,227.2,349.2z"/>
<path style="fill:#535A5B;" d="M232,349.2c0-2.4-1.6-4.8-2.4-4.8"/>
<path style="fill:#666E70;" d="M216,321.2c2.4,1.6,4,2.4,4.8,1.6s0-2.4-1.6-4.8C217.6,318,216.8,319.6,216,321.2z"/>
<path style="fill:#535A5B;" d="M220.8,322c0.8-0.8,0-2.4-1.6-4.8"/>
<path style="fill:#666E70;" d="M244,342.8c-2.4-1.6-4-2.4-4.8-1.6s0,2.4,1.6,4.8c0.8-0.8,1.6-0.8,1.6-1.6
	C243.2,343.6,244,342.8,244,342.8z"/>
<path style="fill:#535A5B;" d="M242.4,344.4c0.8-0.8,0.8-1.6,1.6-1.6c-2.4-1.6-4-2.4-4.8-1.6"/>
<path style="fill:#666E70;" d="M212,334c2.4,0,4.8-1.6,4.8-2.4s-1.6-2.4-4.8-2.4c0,0.8,0,1.6,0,2.4S212,333.2,212,334z"/>
<path style="fill:#535A5B;" d="M216.8,331.6c0-0.8-1.6-2.4-4.8-2.4c0,0.8,0,1.6,0,2.4"/>
<path style="fill:#666E70;" d="M243.2,331.6c0,0.8,1.6,2.4,4,2.4c0-1.6,0-3.2,0-4.8C244.8,330,243.2,330.8,243.2,331.6z"/>
<path style="fill:#535A5B;" d="M248,329.2c-2.4,0-4,1.6-4,2.4"/>
<path style="fill:#666E70;" d="M216,342.8c0.8,1.6,2.4,2.4,3.2,3.2c1.6-2.4,2.4-4,1.6-4.8C220,340.4,217.6,341.2,216,342.8z"/>
<path style="fill:#535A5B;" d="M219.2,346c1.6-2.4,2.4-4,1.6-4.8"/>
<path style="fill:#666E70;" d="M240.8,317.2c-1.6,2.4-2.4,4-1.6,4.8c0.8,0.8,2.4,0,4.8-1.6C243.2,319.6,242.4,318,240.8,317.2z"/>
<path style="fill:#535A5B;" d="M240.8,317.2c-1.6,2.4-2.4,4-1.6,4.8"/>
<path d="M395.2,330c0-20,16-36,36-36s36,16,36,36"/>
<path style="fill:#8E8E8E;" d="M468.8,330h-3.2c0-19.2-15.2-34.4-34.4-34.4c-19.2,0-34.4,15.2-34.4,34.4h-3.2
	c0-20.8,16.8-37.6,37.6-37.6S468.8,309.2,468.8,330z"/>
<circle style="fill:#203547;" cx="431.2" cy="331.6" r="32.8"/>
<path style="fill:#122130;" d="M454.4,308.4c12.8,12.8,12.8,33.6,0,46.4s-33.6,12.8-46.4,0"/>
<circle style="fill:#FFA300;" cx="431.2" cy="331.6" r="20.8"/>
<path style="fill:#FF8500;" d="M446.4,317.2c8,8,8,20.8,0,28.8s-20.8,8-28.8,0"/>
<path style="fill:#CED8DD;" d="M449.6,331.6c0,9.6-8,17.6-17.6,17.6s-17.6-8-17.6-17.6s8-17.6,17.6-17.6S449.6,322,449.6,331.6z"/>
<path style="fill:#B2BBC1;" d="M444,318.8c7.2,7.2,7.2,18.4,0,25.6s-18.4,7.2-25.6,0"/>
<path style="opacity:0.2;fill:#888F91;enable-background:new    ;" d="M440,331.6c0,4.8-4,9.6-8,9.6c-4.8,0-8-4.8-8-9.6
	c0-4.8,4-8,8-8S440,326.8,440,331.6z"/>
<circle style="fill:#E7EFF2;" cx="431.2" cy="331.6" r="8"/>
<path style="fill:#DAE6EA;" d="M431.2,323.6c4.8,0,8,4,8,8c0,4.8-4,8-8,8"/>
<path style="fill:#666E70;" d="M431.2,314c-0.8,0-1.6,0-2.4,0c0,2.4,1.6,4.8,2.4,4.8s2.4-1.6,2.4-4.8C432.8,314,432,314,431.2,314z"
	/>
<path style="fill:#535A5B;" d="M431.2,318c0.8,0,2.4-1.6,2.4-4.8c-0.8,0-1.6,0-2.4,0"/>
<path style="fill:#666E70;" d="M428.8,349.2c1.6,0,3.2,0,4.8,0c0-2.4-1.6-4.8-2.4-4.8S429.6,346.8,428.8,349.2z"/>
<path style="fill:#535A5B;" d="M433.6,349.2c0-2.4-1.6-4.8-2.4-4.8"/>
<path style="fill:#666E70;" d="M417.6,321.2c2.4,1.6,4,2.4,4.8,1.6s0-2.4-1.6-4.8C419.2,318,418.4,319.6,417.6,321.2z"/>
<path style="fill:#535A5B;" d="M422.4,322c0.8-0.8,0-2.4-1.6-4.8"/>
<path style="fill:#666E70;" d="M445.6,342.8c-2.4-1.6-4-2.4-4.8-1.6s0,2.4,1.6,4.8c0.8-0.8,1.6-0.8,1.6-1.6S445.6,342.8,445.6,342.8
	z"/>
<path style="fill:#535A5B;" d="M444,344.4c0.8-0.8,0.8-1.6,1.6-1.6c-2.4-1.6-4-2.4-4.8-1.6"/>
<path style="fill:#666E70;" d="M413.6,334c2.4,0,4.8-1.6,4.8-2.4s-1.6-2.4-4.8-2.4c0,0.8,0,1.6,0,2.4S413.6,333.2,413.6,334z"/>
<path style="fill:#535A5B;" d="M418.4,331.6c0-0.8-1.6-2.4-4.8-2.4c0,0.8,0,1.6,0,2.4"/>
<path style="fill:#666E70;" d="M444.8,331.6c0,0.8,1.6,2.4,4,2.4c0-1.6,0-3.2,0-4.8C446.4,330,444.8,330.8,444.8,331.6z"/>
<path style="fill:#535A5B;" d="M449.6,329.2c-2.4,0-4.8,1.6-4.8,2.4"/>
<path style="fill:#666E70;" d="M417.6,342.8c0.8,1.6,2.4,2.4,3.2,3.2c1.6-2.4,2.4-4,1.6-4.8C421.6,340.4,419.2,341.2,417.6,342.8z"
	/>
<path style="fill:#535A5B;" d="M420.8,346c1.6-2.4,2.4-4,1.6-4.8"/>
<path style="fill:#666E70;" d="M442.4,317.2c-1.6,2.4-2.4,4-1.6,4.8s2.4,0,4.8-1.6C444.8,319.6,444,318,442.4,317.2z"/>
<path style="fill:#535A5B;" d="M442.4,317.2c-1.6,2.4-2.4,4-1.6,4.8"/>
<g>
	<path style="fill:#EBF0F2;" d="M341.6,162.8C341.6,163.6,341.6,163.6,341.6,162.8l-308.8,0.8c0,0-0.8,0-0.8-0.8l0,0
		c0,0,0-0.8,0.8-0.8L341.6,162.8C341.6,162,341.6,162.8,341.6,162.8L341.6,162.8z"/>
	<path style="fill:#EBF0F2;" d="M341.6,178C341.6,178.8,341.6,178.8,341.6,178l-308.8,0.8c0,0-0.8,0-0.8-0.8l0,0c0,0,0-0.8,0.8-0.8
		L341.6,178L341.6,178L341.6,178z"/>
	<path style="fill:#EBF0F2;" d="M341.6,194C341.6,194,341.6,194.8,341.6,194l-308.8,0.8c0,0-0.8,0-0.8-0.8l0,0c0,0,0-0.8,0.8-0.8
		L341.6,194C341.6,193.2,341.6,193.2,341.6,194L341.6,194z"/>
	<path style="fill:#EBF0F2;" d="M341.6,209.2C341.6,210,341.6,210,341.6,209.2L32.8,210c0,0-0.8,0-0.8-0.8l0,0c0,0,0-0.8,0.8-0.8
		L341.6,209.2C341.6,208.4,341.6,209.2,341.6,209.2L341.6,209.2z"/>
	<path style="fill:#EBF0F2;" d="M341.6,225.2L341.6,225.2H32.8c0,0-0.8,0-0.8-0.8l0,0c0,0,0-0.8,0.8-0.8L341.6,225.2
		C341.6,224.4,341.6,224.4,341.6,225.2L341.6,225.2z"/>
	<path style="fill:#EBF0F2;" d="M341.6,240.4C341.6,240.4,341.6,241.2,341.6,240.4l-308.8,0.8c0,0-0.8,0-0.8-0.8l0,0
		c0,0,0-0.8,0.8-0.8L341.6,240.4C341.6,239.6,341.6,240.4,341.6,240.4L341.6,240.4z"/>
	<path style="fill:#EBF0F2;" d="M341.6,255.6C341.6,256.4,341.6,256.4,341.6,255.6l-308.8,0.8c0,0-0.8,0-0.8-0.8l0,0c0,0,0,0,0.8,0
		H341.6L341.6,255.6L341.6,255.6z"/>
	<path style="fill:#EBF0F2;" d="M341.6,271.6C341.6,271.6,341.6,272.4,341.6,271.6l-308.8,0.8c-0.8,0-0.8-0.8-0.8-0.8l0,0
		c0,0,0-0.8,0.8-0.8L341.6,271.6C341.6,270.8,341.6,270.8,341.6,271.6L341.6,271.6z"/>
	<path style="fill:#EBF0F2;" d="M341.6,286.8C341.6,287.6,341.6,287.6,341.6,286.8l-308.8,0.8c-0.8,0-0.8,0-0.8-0.8l0,0
		c0,0,0-0.8,0.8-0.8L341.6,286.8C341.6,286,341.6,286.8,341.6,286.8L341.6,286.8z"/>
</g>
<path style="fill:#51859B;" d="M454.4,168.4v24c0,4,3.2,8,8,8H488v-19.2c0-1.6-2.4-11.2-5.6-20h-20.8
	C457.6,161.2,454.4,164.4,454.4,168.4z"/>
<g>
	<path style="fill:#81B6C9;" d="M484,163.6l-29.6,29.6c0,1.6,0.8,3.2,1.6,4l29.6-29.6C484.8,166.8,484,165.2,484,163.6z"/>
	<polygon style="fill:#81B6C9;" points="473.6,200.4 488,200.4 488,186.8 	"/>
	<path style="fill:#81B6C9;" d="M462.4,161.2L462.4,161.2c-4.8,0-8.8,3.2-8.8,8v0.8L462.4,161.2z"/>
	<polygon style="fill:#81B6C9;" points="478.4,161.2 466.4,161.2 454.4,173.2 454.4,185.2 	"/>
</g>
<path style="fill:#4DB708;" d="M464.8,210.8c0,0.8-0.8,1.6-1.6,1.6h-5.6c-0.8,0-1.6-0.8-1.6-1.6l0,0c0-0.8,0.8-1.6,1.6-1.6h5.6
	C464,209.2,464.8,210,464.8,210.8L464.8,210.8z"/>
<path style="fill:#FFDA00;" d="M490.4,286c0,2.4-1.6,4-4,4l0,0c-1.6,0-4-1.6-4-4v-12.8c0-2.4,1.6-4,4-4l0,0c2.4,0,4,1.6,4,4V286z"/>
<g>
</g>
<g>
</g>
<g>
</g>
<g>
</g>
<g>
</g>
<g>
</g>
<g>
</g>
<g>
</g>
<g>
</g>
<g>
</g>
<g>
</g>
<g>
</g>
<g>
</g>
<g>
</g>
<g>
</g>
</svg>
