<?xml version="1.0" encoding="iso-8859-1"?>
<!-- Generator: Adobe Illustrator 19.0.0, SVG Export Plug-In . SVG Version: 6.00 Build 0)  -->
<svg version="1.1" id="Layer_1" xmlns="http://www.w3.org/2000/svg" xmlns:xlink="http://www.w3.org/1999/xlink" x="0px" y="0px"
	 viewBox="0 0 512 512" style="enable-background:new 0 0 512 512;" xml:space="preserve">
<circle style="fill:#2D4452;" cx="256" cy="256" r="256"/>
<path style="fill:#242424;" d="M11.472,332C43.848,436.272,141.08,512,256,512s212.152-75.728,244.528-180H11.472z"/>
<g>
	<rect x="56" y="380" style="fill:#F5F5F5;" width="48" height="16"/>
	<rect x="124" y="380" style="fill:#F5F5F5;" width="48" height="16"/>
	<rect x="192" y="380" style="fill:#F5F5F5;" width="48" height="16"/>
	<rect x="260" y="380" style="fill:#F5F5F5;" width="48" height="16"/>
	<rect x="328" y="380" style="fill:#F5F5F5;" width="48" height="16"/>
	<rect x="396" y="380" style="fill:#F5F5F5;" width="48" height="16"/>
</g>
<path style="fill:#84D3C4;" d="M434.78,236l18.944,34.892l56.28,16.524c1.256-10.304,1.988-20.768,1.988-31.416
	c0-23.952-3.36-47.108-9.516-69.1L434.78,236z"/>
<path style="fill:#406A80;" d="M408.608,228h-57.58l-42.256-59.9c-5.38-7.688-14.028-12.1-23.732-12.1H174.264
	c-9.688,0-18.328,4.412-23.712,12.088L108.272,228H60c-2.212,0-4,1.792-4,4v76c0,2.208,1.788,4,4,4h28.204
	c2.048-24.6,22.68-44,47.796-44s45.752,19.4,47.796,44h144.408c2.048-24.6,22.68-44,47.796-44s45.752,19.4,47.796,44H452
	c2.212,0,4-1.792,4-4v-10.86C456,239.996,430.236,228,408.608,228z"/>
<g>
	<path style="fill:#395F73;" d="M120,268c-25.116,0-45.752,19.4-47.796,44h16c1.82-21.92,18.424-39.68,39.796-43.288
		C125.4,268.264,122.736,268,120,268z"/>
	<path style="fill:#395F73;" d="M300.772,168.1l42.26,59.9h8l-42.252-59.9c-5.388-7.688-14.036-12.1-23.736-12.1h-8
		C286.744,156,295.392,160.412,300.772,168.1z"/>
	<path style="fill:#395F73;" d="M360,268c-25.116,0-45.752,19.4-47.796,44h16c1.82-21.92,18.424-39.68,39.796-43.288
		C365.4,268.264,362.736,268,360,268z"/>
	<path style="fill:#395F73;" d="M408.608,228h-16c21.62,0,47.392,11.996,47.392,69.14V308c0,2.208-1.788,4-4,4h16
		c2.212,0,4-1.792,4-4v-10.86C456,239.996,430.236,228,408.608,228z"/>
</g>
<path style="fill:#CC584C;" d="M76,248v24c0,6.6-5.4,12-12,12h-8v-36H76z"/>
<path style="fill:#0D0D0D;" d="M136,356c-22.056,0-40-17.944-40-40s17.944-40,40-40s40,17.944,40,40S158.056,356,136,356z"/>
<path style="fill:#242424;" d="M136,352c-19.848,0-36-16.152-36-36s16.152-36,36-36s36,16.148,36,36
	C172,335.848,155.848,352,136,352z"/>
<path style="fill:#B3B3B3;" d="M136,344c-15.436,0-28-12.564-28-28s12.564-28,28-28s28,12.564,28,28S151.436,344,136,344z"/>
<path style="fill:#CCCCCC;" d="M136,340c-13.236,0-24-10.764-24-24s10.764-24,24-24s24,10.764,24,24S149.236,340,136,340z"/>
<path style="fill:#B3B3B3;" d="M136,324c-4.416,0-8-3.584-8-8s3.584-8,8-8s8,3.584,8,8S140.416,324,136,324z"/>
<path style="fill:#0D0D0D;" d="M376,356c-22.056,0-40-17.944-40-40s17.944-40,40-40s40,17.944,40,40S398.056,356,376,356z"/>
<path style="fill:#242424;" d="M376,352c-19.848,0-36-16.152-36-36s16.152-36,36-36s36,16.148,36,36
	C412,335.848,395.848,352,376,352z"/>
<path style="fill:#B3B3B3;" d="M376,344c-15.436,0-28-12.564-28-28s12.564-28,28-28s28,12.564,28,28S391.436,344,376,344z"/>
<path style="fill:#CCCCCC;" d="M376,340c-13.236,0-24-10.764-24-24s10.764-24,24-24s24,10.764,24,24S389.236,340,376,340z"/>
<path style="fill:#B3B3B3;" d="M376,324c-4.416,0-8-3.584-8-8s3.584-8,8-8s8,3.584,8,8S380.416,324,376,324z"/>
<g>
	<path style="fill:#96E6D9;" d="M232,228h99.444l-35.772-50.72c-2.392-3.408-6.16-5.28-10.624-5.28H232V228z"/>
	<path style="fill:#96E6D9;" d="M224,172h-49.736c-4.456,0-8.232,1.872-10.636,5.316L127.86,228H224V172z"/>
</g>
<path style="fill:#F5F5F5;" d="M434.78,236H428c-8.8,0-12.504,6.292-8.236,13.988l4.46,8.028C428.504,265.708,439.2,272,448,272
	c2.024,0,3.944-0.416,5.736-1.108C450.288,253.14,443.244,242.32,434.78,236z"/>
<path style="fill:#FFD464;" d="M56,236h8c6.6,0,12,5.4,12,12H56V236z"/>
<g>
</g>
<g>
</g>
<g>
</g>
<g>
</g>
<g>
</g>
<g>
</g>
<g>
</g>
<g>
</g>
<g>
</g>
<g>
</g>
<g>
</g>
<g>
</g>
<g>
</g>
<g>
</g>
<g>
</g>
</svg>
