<svg width="24px" height="24px" viewBox="0 0 24 24" fill="none" xmlns="http://www.w3.org/2000/svg">
<path fill-rule="evenodd" clip-rule="evenodd" d="M10.4995 7.30874C10.393 8.1575 10.3923 9.05709 10.3923 9.9425C10.3923 10.2186 10.1685 10.4425 9.89231 10.4425H7.5V12.7538H9.89231C10.1685 12.7538 10.3923 12.9777 10.3923 13.2538V21C10.3923 21.2762 10.1685 21.5 9.89231 21.5C9.61617 21.5 9.39231 21.2762 9.39231 21V13.7538H7C6.72386 13.7538 6.5 13.53 6.5 13.2538V9.9425C6.5 9.66636 6.72386 9.4425 7 9.4425H9.39301C9.39614 8.70911 9.41331 7.93296 9.50726 7.18425C9.62293 6.26234 9.85913 5.34093 10.3595 4.55832C11.403 2.92633 13.4341 2.1173 17.0761 2.67781C17.32 2.71535 17.5 2.92522 17.5 3.17199V6.03985C17.5 6.1816 17.4398 6.3167 17.3345 6.41152C17.2291 6.50634 17.0884 6.55198 16.9474 6.53708C15.3986 6.37338 14.83 6.57598 14.5516 6.94147C14.3963 7.14541 14.2786 7.46242 14.2066 7.97235C14.1503 8.37157 14.1261 8.85529 14.1184 9.4425H17C17.1502 9.4425 17.2924 9.51 17.3873 9.62633C17.4823 9.74267 17.5199 9.89552 17.4899 10.0426L16.8129 13.354C16.7654 13.5867 16.5606 13.7538 16.3231 13.7538H14.1154V21C14.1154 21.2762 13.8915 21.5 13.6154 21.5C13.3392 21.5 13.1154 21.2762 13.1154 21V13.2538C13.1154 12.9777 13.3392 12.7538 13.6154 12.7538H15.9149L16.3874 10.4425H13.6154C13.3392 10.4425 13.1154 10.2186 13.1154 9.9425C13.1154 9.12077 13.1342 8.41555 13.2164 7.83262C13.2983 7.25231 13.4498 6.73779 13.7561 6.33563C14.3204 5.5945 15.2517 5.41948 16.5 5.49568V3.60636C13.3324 3.20155 11.9049 3.99772 11.202 5.097C10.8139 5.70397 10.6059 6.46042 10.4995 7.30874Z" fill="black"/>
</svg>
