<?xml version="1.0" encoding="iso-8859-1"?>
<!-- Generator: Adobe Illustrator 16.0.0, SVG Export Plug-In . SVG Version: 6.00 Build 0)  -->
<!DOCTYPE svg PUBLIC "-//W3C//DTD SVG 1.1//EN" "http://www.w3.org/Graphics/SVG/1.1/DTD/svg11.dtd">
<svg version="1.1" id="Capa_1" xmlns="http://www.w3.org/2000/svg" xmlns:xlink="http://www.w3.org/1999/xlink" x="0px" y="0px"
	 width="38.374px" height="38.374px" viewBox="0 0 38.374 38.374" style="enable-background:new 0 0 38.374 38.374;"
	 xml:space="preserve">
<g>
	<path d="M38.314,18.576L30.61,4.222c-0.062-0.118-0.171-0.206-0.299-0.243l-3.65-1.073c-0.046-0.014-0.094-0.021-0.142-0.021
		l-15.133,0.01L7.09,3.753C6.939,3.784,6.81,3.882,6.741,4.02L0.053,17.337c-0.04,0.08-0.058,0.168-0.052,0.258l0.797,12.086
		c0.012,0.177,0.117,0.335,0.275,0.414l2.578,1.289c0.145,0.071,0.316,0.069,0.459-0.007s0.24-0.219,0.261-0.379l1.238-9.78
		l1.482-2.721L6.903,33.018c-0.002,0.207,0.122,0.396,0.314,0.471c3.315,1.327,7.105,2,11.262,2l0.761-0.011
		c5.378-0.353,11.203-1.738,11.261-1.752c0.223-0.056,0.38-0.251,0.383-0.479l0.195-14.457l1.175,1.526l0.422,9.294
		c0.012,0.238,0.188,0.436,0.424,0.473l2.793,0.431c0.272,0.044,0.522-0.144,0.568-0.41l1.904-11.207
		C38.387,18.787,38.368,18.673,38.314,18.576z M18.249,32.97c-0.434,0-0.786-0.353-0.786-0.786s0.352-0.786,0.786-0.786
		s0.786,0.354,0.786,0.786C19.035,32.62,18.683,32.97,18.249,32.97z M18.249,29.538c-0.434,0-0.786-0.354-0.786-0.787
		c0-0.434,0.352-0.785,0.786-0.785s0.786,0.353,0.786,0.785S18.683,29.538,18.249,29.538z M18.249,26.101
		c-0.434,0-0.786-0.354-0.786-0.786c0-0.436,0.352-0.786,0.786-0.786s0.786,0.353,0.786,0.786S18.683,26.101,18.249,26.101z
		 M20.699,9.024c-0.15,0.067-0.258,0.208-0.285,0.371l-2.166,12.896L16.019,9.006c-0.023-0.139-0.103-0.26-0.22-0.336
		c-1.307-0.854-2.138-2.236-2.288-3.766h10.141C23.475,6.681,22.354,8.263,20.699,9.024z"/>
</g>
<g>
</g>
<g>
</g>
<g>
</g>
<g>
</g>
<g>
</g>
<g>
</g>
<g>
</g>
<g>
</g>
<g>
</g>
<g>
</g>
<g>
</g>
<g>
</g>
<g>
</g>
<g>
</g>
<g>
</g>
</svg>
