<svg width="24px" height="24px" viewBox="0 0 24 24" fill="none" xmlns="http://www.w3.org/2000/svg">
<path fill-rule="evenodd" clip-rule="evenodd" d="M11.5376 3.9477C11.7275 3.78498 12.0083 3.78751 12.1952 3.95363L19.702 10.6263C20.0456 10.9317 19.8295 11.5 19.3698 11.5H18.5C17.6716 11.5 17 12.1716 17 13V20C17 20.2761 16.7761 20.5 16.5 20.5H7.24999C6.97385 20.5 6.74999 20.2761 6.74999 20V13.125C6.74999 12.8489 6.52613 12.625 6.24999 12.625C5.97385 12.625 5.74999 12.8489 5.74999 13.125V20C5.74999 20.8284 6.42156 21.5 7.24999 21.5H16.5C17.3284 21.5 18 20.8284 18 20V13C18 12.7239 18.2238 12.5 18.5 12.5H19.3698C20.7491 12.5 21.3972 10.7952 20.3663 9.87889L12.8596 3.20622C12.2989 2.70788 11.4564 2.70028 10.8868 3.18845L3.67459 9.37038C3.46493 9.55009 3.44065 9.86574 3.62036 10.0754C3.80007 10.2851 4.11572 10.3093 4.32538 10.1296L11.5376 3.9477Z" fill="black"/>
</svg>
