<svg width="24px" height="24px" viewBox="0 0 24 24" fill="none" xmlns="http://www.w3.org/2000/svg">
<path fill-rule="evenodd" clip-rule="evenodd" d="M7.43507 2.50027L7.45159 2.5H14.5161C14.7521 2.5 14.9559 2.66498 15.0051 2.89577C15.0543 3.12656 14.9354 3.36033 14.72 3.45655C14.6593 3.48365 14.597 3.51135 14.5334 3.53968C13.3733 4.05603 11.7454 4.78061 10.388 5.92435C8.97183 7.11762 7.88613 8.73644 7.95139 11.0294C8.01908 13.4079 9.16133 14.8348 10.462 15.4521C11.792 16.0833 13.2848 15.8823 14.1629 15.0058C15.0574 14.1128 15.2953 12.6538 14.8856 11.3893C14.4826 10.1456 13.489 9.18937 12 9.18937C11.7238 9.18937 11.5 8.96552 11.5 8.68937C11.5 8.41323 11.7238 8.18937 12 8.18937C14.011 8.18937 15.3297 9.51584 15.8369 11.0811C16.3373 12.6255 16.0833 14.5017 14.8694 15.7135C13.6389 16.9419 11.672 17.1333 10.0332 16.3555C8.36502 15.5637 7.02927 13.7801 6.95179 11.0578C6.87543 8.37462 8.16877 6.48663 9.74364 5.15963C10.5538 4.47699 11.4479 3.93478 12.2798 3.5H7.46023C6.82379 3.52303 5.83518 3.79943 5.00973 4.56665C4.19599 5.32298 3.49998 6.59431 3.49998 8.68937V16.1393C3.5154 16.8606 3.77508 17.9597 4.49704 18.868C5.20332 19.7566 6.37996 20.5 8.32256 20.5H16.1376C16.8471 20.4301 17.9352 20.0733 18.8434 19.2215C19.7457 18.3754 20.5 17.0138 20.5 14.8692V7.32526C20.485 6.94343 20.3407 6.3534 19.9632 5.86468C19.5992 5.39354 18.999 4.98834 17.9915 4.97132C16.9876 4.95436 16.5628 5.3491 16.3908 5.70128C16.2959 5.89557 16.2616 6.10773 16.2739 6.29826C16.2866 6.4961 16.3462 6.63128 16.3934 6.69146C16.7304 7.12121 17.0296 7.13172 17.1841 7.08555C17.3745 7.02867 17.5 6.85671 17.5 6.67847C17.5 6.40233 17.7238 6.17847 18 6.17847C18.2761 6.17847 18.5 6.40233 18.5 6.67847C18.5 7.32177 18.0618 7.86699 17.4704 8.0437C16.8431 8.23112 16.1422 7.99163 15.6065 7.30854C15.4037 7.04992 15.298 6.70472 15.276 6.36253C15.2535 6.01304 15.3149 5.62554 15.4922 5.26248C15.8646 4.49995 16.6897 3.94918 18.0084 3.97146C19.3236 3.99368 20.2072 4.54488 20.7545 5.25331C21.2856 5.94067 21.4806 6.74844 21.4997 7.29878L21.5 7.31608V14.8692C21.5 17.2761 20.6413 18.9064 19.5275 19.951C18.4289 20.9812 17.1108 21.4155 16.2067 21.4979C16.1916 21.4993 16.1764 21.5 16.1613 21.5H8.32256C6.08451 21.5 4.61599 20.6248 3.7142 19.4903C2.82971 18.3775 2.51796 17.0517 2.50008 16.1544L2.49988 16.1444L2.49998 8.68937C2.49998 6.35065 3.28784 4.80182 4.32893 3.83417C5.35491 2.88058 6.58734 2.52829 7.43507 2.50027Z" fill="black"/>
</svg>
