<svg width="24px" height="24px" viewBox="0 0 24 24" fill="none" xmlns="http://www.w3.org/2000/svg">
<path fill-rule="evenodd" clip-rule="evenodd" d="M2.74717 4.7559C3.16305 3.98366 4.04607 3.47693 5.15805 3.50081C6.32983 3.52597 7.11605 4.19929 7.46473 5.09247C7.80264 5.95808 7.73047 7.01606 7.2835 7.90751C6.89362 8.68509 6.14344 9.16345 5.44487 9.45106C4.94241 9.65793 4.42702 9.78274 4.00141 9.8485V19.5H8.67545V8.95189C8.67545 8.67574 8.89931 8.45189 9.17545 8.45189H12.9004C13.1765 8.45189 13.4004 8.67574 13.4004 8.95189V9.59464C14.7698 8.55891 16.52 8.24163 18.039 8.59809C19.937 9.0435 21.5 10.5539 21.5 13.0029V20C21.5 20.2761 21.2761 20.5 21 20.5H17.1018C16.8257 20.5 16.6018 20.2761 16.6018 20V14.5169C16.6018 13.3143 16.3256 12.7523 16.0548 12.5216C15.8139 12.3164 15.4367 12.2636 14.8838 12.485C14.3265 12.7081 13.9805 12.9986 13.7587 13.404C13.527 13.8273 13.4004 14.4308 13.4004 15.3352V20C13.4004 20.2761 13.1765 20.5 12.9004 20.5C12.6243 20.5 12.4004 20.2761 12.4004 20V15.3352C12.4004 14.3574 12.5337 13.5595 12.8814 12.924C13.2389 12.2706 13.7916 11.845 14.5121 11.5566C15.2369 11.2665 16.0617 11.2138 16.7033 11.7604C17.315 12.2816 17.6018 13.2234 17.6018 14.5169V19.5H20.5V13.0029C20.5 11.0735 19.3126 9.92416 17.8105 9.57165C16.2807 9.21264 14.4518 9.69398 13.282 11.0754C13.1464 11.2355 12.9253 11.294 12.7283 11.2218C12.5314 11.1496 12.4004 10.9621 12.4004 10.7523V9.45189H9.67545V20C9.67545 20.2761 9.45159 20.5 9.17545 20.5H3.50141C3.22527 20.5 3.00141 20.2761 3.00141 20V9.40199C3.00141 9.13826 3.20626 8.91987 3.46945 8.90302C3.84919 8.8787 4.4724 8.77 5.06416 8.52636C5.66427 8.2793 6.15574 7.92565 6.38957 7.45929C6.72224 6.79582 6.75835 6.0329 6.53319 5.45612C6.31879 4.90691 5.87059 4.51634 5.13658 4.50058C4.34278 4.48353 3.83977 4.8361 3.62761 5.23006C3.41967 5.61618 3.4443 6.11941 3.86409 6.56175C4.05418 6.76205 4.0459 7.07853 3.8456 7.26862C3.64529 7.45871 3.32882 7.45043 3.13873 7.25013C2.43237 6.50582 2.32707 5.53597 2.74717 4.7559Z" fill="black"/>
</svg>
