<svg width="24px" height="24px" viewBox="0 0 24 24" fill="none" xmlns="http://www.w3.org/2000/svg">
<path fill-rule="evenodd" clip-rule="evenodd" d="M12 3.5C7.22162 3.5 3.5 6.74642 3.5 10.5789C3.5 12.2394 4.18809 13.7765 5.36053 14.9966C5.8954 15.5532 6.53069 16.0431 7.24552 16.4461C7.48608 16.5817 7.57117 16.8866 7.43557 17.1272C7.29997 17.3677 6.99503 17.4528 6.75448 17.3172C5.95876 16.8687 5.24507 16.3197 4.63947 15.6895C3.31031 14.3062 2.5 12.5282 2.5 10.5789C2.5 6.04 6.83726 2.5 12 2.5C17.1627 2.5 21.5 6.04 21.5 10.5789C21.5 15.0787 17.2373 18.5967 12.1336 18.6571L7.24708 21.4347C7.00701 21.5711 6.70178 21.4872 6.56532 21.2471C6.42886 21.007 6.51285 20.7018 6.75292 20.5653L11.7529 17.7232C11.8282 17.6804 11.9134 17.6579 12 17.6579C16.7784 17.6579 20.5 14.4115 20.5 10.5789C20.5 6.74642 16.7784 3.5 12 3.5Z" fill="black"/>
</svg>
