<svg width="24px" height="24px" viewBox="0 0 24 24" fill="none" xmlns="http://www.w3.org/2000/svg">
<path fill-rule="evenodd" clip-rule="evenodd" d="M12.6071 4.84734C12.3423 4.38422 11.6576 4.38422 11.3928 4.84734L3.59338 18.4908C3.27729 19.0437 3.87281 19.7371 4.51405 19.4217L8.19531 17.6105C8.44309 17.4886 8.74278 17.5907 8.86468 17.8385C8.98658 18.0862 8.88454 18.3859 8.63676 18.5078L4.9555 20.319C3.48979 21.0401 1.88643 19.4618 2.72522 17.9945L10.5246 4.35105L10.9587 4.59919L10.5247 4.35105C11.1733 3.21632 12.8266 3.21631 13.4752 4.35105L21.2747 17.9945C22.1135 19.4618 20.5101 21.0401 19.0444 20.319L15.3631 18.5078C15.1154 18.3859 15.0133 18.0862 15.1352 17.8385C15.2571 17.5907 15.5568 17.4886 15.8046 17.6105L19.4858 19.4217C20.1271 19.7371 20.7226 19.0437 20.4065 18.4908L12.6071 4.84734Z" fill="black"/>
</svg>
