<svg width="24px" height="24px" viewBox="0 0 24 24" fill="none" xmlns="http://www.w3.org/2000/svg">
<path fill-rule="evenodd" clip-rule="evenodd" d="M4.7918 6.92857C4.7918 6.12485 5.45969 5.5 6.25012 5.5H17.75C18.5404 5.5 19.2083 6.12485 19.2083 6.92857V15.6885C19.2083 15.8315 19.2857 15.9716 19.4249 16.0525L20.7844 16.8429C22.0929 17.6036 21.4839 19.5 20.0401 19.5H3.96003C2.51615 19.5 1.90725 17.6036 3.21568 16.8429L4.81288 15.9144L5.06418 16.3466L4.81288 15.9144C5.03879 15.783 5.29603 15.7143 5.55724 15.7143H15.8333C16.1095 15.7143 16.3333 15.9381 16.3333 16.2143C16.3333 16.4904 16.1095 16.7143 15.8333 16.7143H5.55724C5.47107 16.7143 5.38745 16.737 5.31549 16.7789L3.71828 17.7074C3.35983 17.9158 3.46001 18.5 3.96003 18.5H20.0401C20.5401 18.5 20.6403 17.9158 20.2818 17.7074L18.9223 16.917C18.4842 16.6623 18.2083 16.1979 18.2083 15.6885V6.92857C18.2083 6.70662 18.0181 6.5 17.75 6.5H6.25012C5.98202 6.5 5.7918 6.70662 5.7918 6.92857V13.4286C5.7918 13.7047 5.56794 13.9286 5.2918 13.9286C5.01566 13.9286 4.7918 13.7047 4.7918 13.4286V6.92857Z" fill="black"/>
</svg>
