<svg width="24px" height="24px" viewBox="0 0 24 24" fill="none" xmlns="http://www.w3.org/2000/svg">
<path fill-rule="evenodd" clip-rule="evenodd" d="M14.5 4.5C11.1863 4.5 8.50005 7.18629 8.50005 10.5C8.50005 10.7761 8.27619 11 8.00005 11C7.7239 11 7.50005 10.7761 7.50005 10.5C7.50005 6.63401 10.6341 3.5 14.5 3.5C18.366 3.5 21.5 6.63401 21.5 10.5C21.5 14.366 18.366 17.5 14.5 17.5C12.7668 17.5 11.18 16.8695 9.95766 15.8262L3.28319 20.4121C3.0556 20.5685 2.74432 20.5107 2.58795 20.2831C2.43157 20.0555 2.4893 19.7443 2.7169 19.5879L9.7169 14.7783C9.91232 14.6441 10.1752 14.6655 10.3462 14.8297C11.4248 15.8647 12.8877 16.5 14.5 16.5C17.8138 16.5 20.5 13.8137 20.5 10.5C20.5 7.18629 17.8138 4.5 14.5 4.5Z" fill="black"/>
</svg>
