<svg width="24px" height="24px" viewBox="0 0 24 24" fill="none" xmlns="http://www.w3.org/2000/svg">
<path fill-rule="evenodd" clip-rule="evenodd" d="M11.9746 2.50003C12.1234 2.49853 12.2651 2.56339 12.3613 2.67698C13.133 3.58877 15.6088 5.5 19.0893 5.5C19.2913 5.5 19.4735 5.62158 19.551 5.80815C20.3444 7.71757 20.9283 10.7839 20.0917 13.8083C19.2456 16.8673 16.9616 19.8224 12.1416 21.473C12.0409 21.5075 11.9318 21.509 11.8302 21.4771C10.1089 20.9379 7.80558 19.6972 6.05527 17.6456C4.29256 15.5794 3.09861 12.6968 3.62547 8.93073C3.66373 8.65725 3.91644 8.46656 4.18992 8.50482C4.4634 8.54308 4.65408 8.79579 4.61582 9.06927C4.13239 12.5249 5.22043 15.1262 6.81604 16.9965C8.37174 18.8201 10.4172 19.9544 11.9738 20.4727C16.3887 18.9148 18.3831 16.2344 19.1279 13.5417C19.8487 10.936 19.413 8.26367 18.7472 6.49444C15.5267 6.3896 13.1224 4.82505 11.986 3.73279C11.0858 4.61453 9.82526 5.23399 8.61605 5.65919C7.21142 6.1531 5.80055 6.41079 4.91895 6.49759C4.64413 6.52465 4.39942 6.32381 4.37236 6.04899C4.34531 5.77418 4.54615 5.52946 4.82096 5.50241C5.63214 5.42254 6.96357 5.18023 8.28432 4.71581C9.61795 4.24687 10.8666 3.57693 11.5916 2.6847C11.6854 2.56921 11.8258 2.50152 11.9746 2.50003Z" fill="black"/>
</svg>
