<?xml version="1.0" encoding="iso-8859-1"?>
<!-- Generator: Adobe Illustrator 19.0.0, SVG Export Plug-In . SVG Version: 6.00 Build 0)  -->
<svg version="1.1" id="Layer_1" xmlns="http://www.w3.org/2000/svg" xmlns:xlink="http://www.w3.org/1999/xlink" x="0px" y="0px"
	 viewBox="0 0 512 512" style="enable-background:new 0 0 512 512;" xml:space="preserve">
<g>
	<path style="fill:#1D1D1B;" d="M52.038,512h175.756V264.191H52.038V512z M67.678,279.831h144.475V496.36H67.678V279.831z"/>
	<path style="fill:#1D1D1B;" d="M155.927,311.854h8.191v40.215c0,13.346-10.857,24.204-24.204,24.204
		c-13.345,0-24.203-10.857-24.203-24.204v-40.215h8.191v-15.64H91.881v15.64h8.191v40.215c0,21.969,17.874,39.844,39.843,39.844
		c21.97,0,39.844-17.875,39.844-39.844v-40.215h8.191v-15.64h-32.023V311.854z"/>
	<polygon style="fill:#1D1D1B;" points="172.125,104.075 172.125,255.999 187.765,255.999 187.765,119.715 444.322,119.715 
		444.322,496.36 235.986,496.36 235.986,512 459.962,512 459.962,104.075 	"/>
	<rect x="260.002" y="136.101" style="fill:#1D1D1B;" width="16.011" height="15.64"/>
	<rect x="356.074" y="136.101" style="fill:#1D1D1B;" width="16.011" height="15.64"/>
	<path style="fill:#1D1D1B;" d="M275.829,55.854c0-22.175,18.04-40.214,40.215-40.214s40.215,18.04,40.215,40.214v40.029h15.64
		V55.854C371.899,25.056,346.842,0,316.044,0s-55.855,25.056-55.855,55.854v40.029h15.64V55.854z"/>
</g>
<g>
</g>
<g>
</g>
<g>
</g>
<g>
</g>
<g>
</g>
<g>
</g>
<g>
</g>
<g>
</g>
<g>
</g>
<g>
</g>
<g>
</g>
<g>
</g>
<g>
</g>
<g>
</g>
<g>
</g>
</svg>
