<svg width="24px" height="24px" viewBox="0 0 24 24" fill="none" xmlns="http://www.w3.org/2000/svg">
<path fill-rule="evenodd" clip-rule="evenodd" d="M12 3.5C7.30558 3.5 3.5 7.30558 3.5 12C3.5 16.6944 7.30558 20.5 12 20.5C12.2761 20.5 12.5 20.7239 12.5 21C12.5 21.2761 12.2761 21.5 12 21.5C6.75329 21.5 2.5 17.2467 2.5 12C2.5 6.75329 6.75329 2.5 12 2.5C17.2467 2.5 21.5 6.75329 21.5 12C21.5 15.2942 19.8228 18.1966 17.2781 19.9C17.0594 20.0463 16.7647 19.9982 16.604 19.7898L11.604 13.3053C11.5366 13.2178 11.5 13.1105 11.5 13V7C11.5 6.72386 11.7239 6.5 12 6.5C12.2761 6.5 12.5 6.72386 12.5 7V12.8296L17.1026 18.7987C19.1666 17.2471 20.5 14.7792 20.5 12C20.5 7.30558 16.6944 3.5 12 3.5Z" fill="black"/>
</svg>
