<svg width="24px" height="24px" viewBox="0 0 24 24" fill="none" xmlns="http://www.w3.org/2000/svg">
<path fill-rule="evenodd" clip-rule="evenodd" d="M9.3169 2.92168C9.35542 2.67881 9.56482 2.5 9.81073 2.5H12.6393C12.9154 2.5 13.1393 2.72386 13.1393 3V7.02943H16.3714C16.6476 7.02943 16.8714 7.25329 16.8714 7.52943V10.2471C16.8714 10.5232 16.6476 10.7471 16.3714 10.7471H13.1393V15.5692C13.1393 15.5751 13.1392 15.581 13.139 15.5869C13.1218 16.0709 13.2607 16.6491 13.6171 16.9734C13.9252 17.2537 14.5634 17.4856 15.9019 16.9203C16.0293 16.8665 16.1733 16.8679 16.2997 16.9241C16.4261 16.9803 16.5235 17.0864 16.5688 17.2171L17.4724 19.8215C17.5505 20.0467 17.4588 20.2958 17.2532 20.4165C16.4876 20.8661 15.1258 21.3996 13.6173 21.4875C12.0976 21.576 10.3875 21.2118 9.0201 19.8055C8.19767 18.9597 7.4643 17.6525 7.4643 14.8898V10.7471H6.00001C5.72387 10.7471 5.50001 10.5232 5.50001 10.2471C5.50001 9.97095 5.72387 9.74709 6.00001 9.74709H7.9643C8.24044 9.74709 8.4643 9.97095 8.4643 10.2471V14.8898C8.4643 17.4416 9.12792 18.4819 9.73706 19.1084C10.8478 20.2507 12.2413 20.5659 13.5592 20.4892C14.6721 20.4243 15.7013 20.0796 16.3876 19.7456L15.7924 18.03C14.5244 18.4503 13.5788 18.2905 12.9442 17.7131C12.2805 17.1093 12.1191 16.1839 12.1393 15.5607V10.2471C12.1393 9.97095 12.3632 9.74709 12.6393 9.74709H15.8714V8.02943H12.6393C12.3632 8.02943 12.1393 7.80558 12.1393 7.52943V3.5H10.2263C9.56436 6.60202 7.30477 8.06548 6.14736 8.42243C5.88348 8.50381 5.6036 8.35586 5.52222 8.09198C5.44084 7.82811 5.58878 7.54822 5.85266 7.46684C6.76544 7.18533 8.84915 5.87094 9.3169 2.92168Z" fill="black"/>
</svg>
