<svg width="24px" height="24px" viewBox="0 0 24 24" fill="none" xmlns="http://www.w3.org/2000/svg">
<path fill-rule="evenodd" clip-rule="evenodd" d="M9.43084 5.5C6.05159 5.5 3.5 7.70095 3.5 10.2073C3.5 11.6282 4.30132 12.9336 5.62741 13.8161C5.80768 13.9361 5.89023 14.1585 5.83193 14.367L5.4212 15.836L6.90928 14.9266C7.04653 14.8428 7.21576 14.83 7.36401 14.8925C7.61526 14.9982 8.2868 15.206 8.87646 15.1817C9.15237 15.1703 9.38525 15.3848 9.3966 15.6607C9.40796 15.9366 9.1935 16.1695 8.91759 16.1809C8.28232 16.207 7.62564 16.0431 7.22322 15.9067L4.85816 17.352C4.68282 17.4591 4.45977 17.4481 4.29587 17.3242C4.13196 17.2002 4.06058 16.9886 4.11591 16.7907L4.77389 14.4374C3.39764 13.4095 2.5 11.9091 2.5 10.2073C2.5 6.96186 5.70678 4.5 9.43084 4.5C13.0448 4.5 16.1622 6.81244 16.3527 9.9137C16.3613 10.0542 16.3103 10.1919 16.2122 10.2928C16.1141 10.3938 15.9779 10.4487 15.8372 10.4441C15.7698 10.4419 15.7021 10.4408 15.634 10.4408C12.8457 10.4408 10.7679 12.2646 10.7679 14.311C10.7679 14.6204 10.8137 14.921 10.9003 15.2094C11.3959 16.8591 13.276 18.1813 15.634 18.1813C16.1333 18.1813 16.6141 18.1212 17.0661 18.0103C17.1939 17.9789 17.329 17.9992 17.442 18.0667L18.8497 18.9088L18.5318 17.8517C18.4682 17.6403 18.5508 17.4121 18.7351 17.2905C19.8386 16.5619 20.5 15.4815 20.5 14.311C20.5 12.7806 19.3584 11.3895 17.594 10.7688C17.3335 10.6772 17.1966 10.3917 17.2882 10.1312C17.3799 9.87074 17.6653 9.73385 17.9258 9.82549C19.9736 10.5459 21.5 12.2443 21.5 14.311C21.5 15.7588 20.7456 17.0327 19.5929 17.9077L20.1788 19.856C20.2382 20.0537 20.1701 20.2675 20.0073 20.3944C19.8445 20.5213 19.6204 20.535 19.4433 20.4291L17.1011 19.0281C16.6315 19.1282 16.1398 19.1813 15.634 19.1813C12.9468 19.1813 10.5949 17.6682 9.94261 15.4971C9.82856 15.1175 9.76791 14.72 9.76791 14.311C9.76791 11.634 12.2952 9.59777 15.2842 9.44943C14.8336 7.27521 12.4614 5.5 9.43084 5.5Z" fill="black"/>
</svg>
