<svg width="24px" height="24px" viewBox="0 0 24 24" fill="none" xmlns="http://www.w3.org/2000/svg">
<path fill-rule="evenodd" clip-rule="evenodd" d="M14.9163 3.50668C15.4832 2.83676 16.5015 2.79441 17.1221 3.41494L18.7029 4.99582C19.2546 5.54746 19.2913 6.42985 18.7874 7.02539L8.38171 19.323C8.33797 19.3747 8.28418 19.4169 8.22362 19.4472L6.11805 20.5H20C20.2762 20.5 20.5 20.7239 20.5 21C20.5 21.2761 20.2762 21.5 20 21.5H4.00001C3.76812 21.5 3.56667 21.3406 3.51339 21.1149C3.46011 20.8892 3.569 20.6565 3.77641 20.5528L7.68461 18.5987L18.024 6.37945C18.1919 6.18094 18.1797 5.88681 17.9958 5.70293L16.4149 4.12204C16.2081 3.9152 15.8686 3.92932 15.6797 4.15262L5.4439 16.2495L4.47436 19.1581C4.38703 19.4201 4.10387 19.5617 3.8419 19.4743C3.57993 19.387 3.43835 19.1039 3.52567 18.8419L4.52567 15.8419C4.54579 15.7815 4.57723 15.7256 4.61832 15.677L14.9163 3.50668Z" fill="black"/>
</svg>
